<?xml version="1.0" encoding="utf-8"?>
<!-- Generator: Adobe Illustrator 21.0.2, SVG Export Plug-In . SVG Version: 6.00 Build 0)  -->
<svg version="1.1" id="Слой_1" xmlns="http://www.w3.org/2000/svg" xmlns:xlink="http://www.w3.org/1999/xlink" x="0px" y="0px"
	 viewBox="0 0 379.8 135.9" style="enable-background:new 0 0 379.8 135.9;" xml:space="preserve">
<style type="text/css">
	.st0{fill:#E52323;}
	.st1{fill:#666666;}
</style>
<g>
	<path class="st0" d="M256.9,57.3c-0.1-0.9-0.3-1.7-0.7-2.5c-0.4-0.8-1-1.6-1.8-2.1c-0.9-0.4-1.8-0.5-2.7-0.3
		c-1.7,0.3-3.2,1.2-4.6,2.1c-0.1,0.1-0.2,0.2-0.3,0.2c0.6-1.5,1.1-3,1.8-4.5c2.5-6,5.2-12,8.1-17.9l0,0c0.2-0.4,0.2-0.9,0-1.3
		c-0.3-0.8-1.2-1.1-2-0.7c-1.6,0.7-2.8,2-3.6,3.3c-0.9,1.3-1.5,2.7-2,4c-1,2.7-1.8,5.4-2.6,8.1c-0.8,2.6-1.6,5.3-2.6,7.8
		c-1,2.5-2.2,5-3.5,7.3c-1.4,2.3-2.9,4.5-4.7,6.5c-0.9,1-1.9,1.8-2.9,2.6c-0.5,0.4-1.1,0.7-1.6,1.1c-0.5,0.3-1,0.5-1.5,0.6
		c-0.5,0.1-1,0.1-1.5,0.1c-0.5-0.1-1-0.2-1.4-0.5c-0.9-0.5-1.6-1.3-2-2.4c-0.1-0.2-0.1-0.3-0.2-0.5c2.6-1.2,5.1-2.4,7.5-4.1
		c1.2-0.8,2.4-1.7,3.5-3c0.5-0.6,1-1.3,1.4-2.2c0.4-0.9,0.5-2,0.2-3c-0.3-1-0.8-1.8-1.7-2.5c-0.8-0.6-1.9-0.9-2.8-1
		c-0.9,0-1.7,0.1-2.5,0.3c-0.4,0.1-0.8,0.2-1.1,0.3c-0.4,0.1-0.8,0.3-1.2,0.5c-2.9,1.5-5,4-6.1,7c-0.5,1.5-0.8,3.1-0.7,4.6
		c0,0.4,0,0.8,0.1,1.2c-1.8,0.8-3.6,1.5-5.5,2.1l-1.9,0.7l-1,0.3c-0.3,0.1-0.6,0.2-0.9,0.3c-1.2,0.3-2.5,0.5-3.7,0.4
		c-1.2-0.1-2.4-0.3-3.1-0.9c-0.7-0.5-1.1-1.3-1.1-2.5c0-2.2,1-4.9,2.2-7.1l0,0c0.4-0.7,0.2-1.6-0.5-2c-0.7-0.4-1.6-0.2-2.1,0.5
		c-2.8,4.6-7.4,8-12.5,9.7c-0.6,0.2-1.3,0.4-1.9,0.5c-0.3,0.1-0.6,0.1-0.9,0.1l-0.4,0l-0.2,0c0,0,0,0,0,0c-0.1,0-0.2-0.1-0.2-0.2
		l0-0.1c0,0,0,0,0-0.1l0-0.4c0-0.3,0.1-0.6,0.2-0.9c0.3-1.2,0.9-2.5,1.4-3.8c0.5-1.4,1.1-2.8,1.3-4.5c0.1-0.4,0-0.9,0-1.3
		c-0.1-0.5-0.1-0.9-0.3-1.4c-0.2-0.5-0.3-0.9-0.6-1.3c-0.2-0.4-0.6-0.9-1.1-1.2c-0.3-0.2-0.6-0.3-0.8-0.5c-0.3-0.1-0.6-0.1-0.9-0.2
		c-0.6,0-1.1,0-1.6,0.2c-0.5,0.1-0.9,0.3-1.3,0.5c-0.4,0.2-0.7,0.4-1.1,0.6c-2.6,1.8-4.6,4-6.6,6.2c-1.1,1.3-2.2,2.7-3.3,4.1
		c0.1-0.5,0.2-0.9,0.3-1.4c0.2-1.2,0.3-2.3,0.3-3.5c0-1.2-0.1-2.4-0.4-3.6c-0.2-0.6-0.4-1.3-0.8-1.9l-0.3-0.5
		c-0.1-0.2-0.3-0.4-0.6-0.5c-0.5-0.3-1-0.4-1.4-0.4c-0.8,0-1.5,0.2-2,0.4c-0.6,0.2-1.1,0.5-1.6,0.8c-2,1.1-3.8,2.5-5.6,3.9
		c-1.8,1.4-3.5,2.8-5.1,4.3c-3.3,3-6.5,6.1-9.6,9.3c3.4-2.9,6.8-5.7,10.3-8.4c1.8-1.4,3.5-2.7,5.3-3.9c1.8-1.2,3.7-2.4,5.6-3.3
		c0.5-0.2,1-0.4,1.4-0.6c0.5-0.1,0.9-0.2,1.2-0.2c0.1,0,0.2,0.1,0.2,0.1c0,0,0,0,0,0L170,55c0.2,0.3,0.3,0.8,0.4,1.2
		c0.3,1.9,0.1,4-0.4,6.1c-1,4.1-2.4,8.2-4.5,12c-0.4,0.7-0.2,1.6,0.5,2c0.7,0.5,1.6,0.3,2.1-0.4l0,0c3.1-4.7,6.5-9.4,10.1-13.7
		c1.8-2.1,3.8-4.2,5.9-5.6c1-0.8,2.2-1,2.3-0.7c0.1,0.1,0.2,0.1,0.3,0.4c0.1,0.2,0.2,0.4,0.3,0.6c0.1,0.2,0.1,0.5,0.1,0.7
		c0,0.3,0,0.5,0,0.8c-0.1,1.1-0.6,2.4-1.1,3.7c-0.5,1.3-1.1,2.7-1.6,4.3c-0.1,0.4-0.2,0.8-0.2,1.3l0,0.7c0,0.1,0,0.2,0,0.4
		c0,0.2,0,0.3,0.1,0.5c0.3,1.3,1.4,2.4,2.7,2.5c0.2,0,0.3,0,0.5,0l0.3,0l0.6,0c0.4-0.1,0.8-0.1,1.2-0.2c0.8-0.2,1.5-0.4,2.3-0.6
		c2.9-1,5.6-2.4,8-4.3c0.3-0.3,0.7-0.5,1-0.8c0,0.4,0,0.8,0,1.2c0,0.8,0.2,1.7,0.6,2.6c0.4,0.9,1,1.6,1.8,2.2
		c1.5,1.1,3.2,1.4,4.8,1.4c1.6,0.1,3.1-0.1,4.6-0.5c0.4-0.1,0.7-0.2,1.1-0.3l1-0.3l2-0.7c1.7-0.6,3.4-1.3,5.1-2l0.2,0.4
		c0.6,1.6,1.7,3,3.3,3.9c0.8,0.4,1.6,0.7,2.5,0.8c0.9,0.1,1.8,0.1,2.6-0.1c0.8-0.2,1.6-0.5,2.4-0.9c0.7-0.4,1.3-0.8,1.9-1.2
		c1.2-0.9,2.3-1.9,3.3-3c1.1-1.2,2.1-2.4,3-3.7c0,0.2,0,0.3,0,0.5c0,0.9,0,1.9,0.4,3c0.1,0.3,0.2,0.5,0.3,0.8
		c0.1,0.3,0.3,0.5,0.5,0.7c0.4,0.5,1,0.9,1.6,1.1c1.2,0.4,2.3,0.2,3.2-0.1c1.9-0.6,3.3-1.6,4.6-2.8c1.3-1.2,2.4-2.5,3.4-3.9
		c0.9-1.5,1.7-3.1,2-4.8C257,59.1,257,58.2,256.9,57.3z M229.1,56.2c0.3-0.1,0.5-0.2,0.8-0.3c0.3-0.1,0.6-0.2,0.9-0.2
		c0.6-0.1,1.2-0.2,1.6-0.2c0.5,0,0.9,0.1,1.1,0.4c0.3,0.2,0.5,0.6,0.6,0.9c0.1,0.3,0.1,0.7-0.1,1.1c-0.2,0.4-0.5,0.9-0.8,1.3
		c-0.8,0.9-1.8,1.7-2.9,2.4c-2,1.3-4.1,2.5-6.4,3.5c0-1.2,0.2-2.4,0.6-3.5C225.3,59.3,227,57.3,229.1,56.2z M255.3,59.7
		c-0.8,2.9-2.9,5.5-5.3,7.4c-1.2,0.9-2.6,1.7-3.9,2c-0.7,0.2-1.3,0.1-1.6,0c-0.3-0.2-0.5-0.4-0.7-1c-0.3-1.1,0-2.6,0.2-4.2
		c0.3-1.5,0.7-3.1,1.2-4.6c0.4-1.4,0.9-2.7,1.4-4.1c0.2-0.1,0.5-0.3,0.7-0.5c1.4-0.8,2.9-1.5,4.5-1.7c0.8-0.1,1.5,0,2.1,0.4
		c0.6,0.4,1,1,1.3,1.7c0.2,0.7,0.4,1.5,0.4,2.2C255.6,58.2,255.5,58.9,255.3,59.7z"/>
	<path class="st0" d="M342,67.8c-0.1-0.5-0.3-1-0.5-1.5c-0.2-0.5-0.6-0.9-0.9-1.3c-0.8-0.7-1.7-1.1-2.7-1.3c-1-0.2-1.9-0.1-2.8,0.2
		c-0.9,0.2-1.8,0.7-2.4,1.3c-0.7,0.6-1.1,1.5-1.4,2.3c0.4-0.8,0.9-1.5,1.6-2c0.7-0.5,1.5-0.8,2.3-0.9c0.8-0.1,1.7-0.1,2.4,0.2
		c0.8,0.2,1.4,0.7,1.9,1.2c0.2,0.3,0.4,0.6,0.5,0.9c0.1,0.3,0.2,0.7,0.2,1.1c0.1,0.7-0.1,1.4-0.5,2c-0.7,1.2-2.2,2-3.7,2.5
		c-0.2,0.1-0.4,0.1-0.6,0.2l-0.1,0l-0.1,0l-0.3,0c-0.4,0.1-0.8,0.1-1.1,0.1c-0.7,0-1.5,0.1-2.2-0.1c-1.4-0.3-2.7-1-3.7-2.2
		c-2-2.3-3.2-5.7-3.8-8.8l0,0c-0.1-0.7-0.7-1.2-1.5-1.3c-0.8,0-1.5,0.7-1.5,1.5c0,1.5-0.6,3.1-1.5,4.4c-0.9,1.4-2.1,2.6-3.5,3.5
		c-1.4,0.9-2.9,1.6-4.5,1.7c-1.6,0.2-3.1-0.1-4.5-0.9c-2.8-1.5-4.5-4.7-5.3-8.1c-0.8-3.4-1-7.1-0.7-10.6l0,0
		c0.1-0.8-0.5-1.5-1.2-1.6c-0.8-0.2-1.6,0.4-1.8,1.2c-0.3,1.8-1.1,3.6-2,5.4c-0.9,1.8-2,3.5-3.2,5.1c-2.4,3.3-5.1,6.3-8.3,8.7
		c-3.1,2.4-6.9,4-10.5,3.5c-0.9-0.1-1.8-0.3-2.6-0.7c-0.8-0.3-1.5-0.8-2.1-1.4c-0.8-0.8-1.3-1.9-1.6-3c0.3-0.1,0.6-0.1,0.9-0.2
		c2.1-0.5,4.2-1.2,6.1-2.4c1-0.6,1.9-1.3,2.7-2.2c0.8-0.9,1.5-2,1.8-3.3c0.3-1.3,0.2-2.5,0-3.7c-0.3-1.5-1.3-2.8-2.6-3.5
		c-0.7-0.3-1.4-0.5-2.1-0.5c-0.6,0-1.2,0-1.9,0.1c-1.2,0.2-2.5,0.7-3.5,1.5c-1,0.8-1.8,1.8-2.4,2.8c-0.6,1.1-1,2.1-1.3,3.2
		c-0.6,2.2-0.8,4.3-0.9,6.6c0,0.3,0,0.6,0,1c-0.8,0.2-1.6,0.4-2.4,0.6c-2,0.5-4.1,0.9-6.1,1.1c2.9,0.1,5.8-0.1,8.7-0.5
		c0.4,1.7,1.2,3.3,2.4,4.5c0.9,0.9,1.9,1.6,3.1,2.1c1.1,0.4,2.2,0.8,3.4,0.9c2.3,0.3,4.7-0.1,6.8-0.9c2.2-0.8,4.1-1.9,5.8-3.2
		c3.5-2.7,6.4-5.9,8.9-9.4c1-1.4,1.9-2.9,2.8-4.4c0.1,1.3,0.4,2.6,0.7,3.9c0.5,1.9,1.2,3.8,2.3,5.6c1.1,1.7,2.6,3.4,4.5,4.4
		c1.9,1,4.2,1.5,6.3,1.2c2.1-0.2,4.1-1.1,5.8-2.2c1.7-1.2,3.2-2.6,4.3-4.4c0.1-0.2,0.3-0.4,0.4-0.6c0,0.1,0.1,0.2,0.1,0.2
		c0.7,1.8,1.7,3.5,3,5c1.3,1.5,3.2,2.7,5.3,3.1c1,0.2,2.1,0.2,3.1,0.1c0.5-0.1,1-0.2,1.5-0.3l0.4-0.1c0,0,0.1,0,0.2-0.1l0.2-0.1
		c0.2-0.1,0.5-0.2,0.7-0.3c0.9-0.4,1.7-0.9,2.5-1.6c0.8-0.6,1.5-1.4,2-2.4C342.1,70,342.2,68.8,342,67.8z M268.5,62.1
		c0.2-0.9,0.6-1.8,1-2.6c0.5-0.8,1-1.4,1.6-1.9c0.6-0.5,1.4-0.8,2.2-0.9c0.4-0.1,0.8-0.1,1.2-0.1c0.3,0,0.6,0.1,0.9,0.2
		c0.5,0.3,0.9,0.8,1,1.4c0.1,0.9,0.1,1.7-0.1,2.5c-0.4,1.5-1.4,3-2.9,4.2c-1.5,1.2-3.3,2.1-5.2,2.8c-0.2,0.1-0.4,0.1-0.6,0.2
		C267.8,65.9,268,63.9,268.5,62.1z"/>
</g>
<path class="st0" d="M122.3,73.6c-0.4-0.2-0.9-0.4-1.2-0.5c-0.8-0.4-1.2-0.8-1.5-1.4c-0.2-0.5-0.3-1.2-0.2-2
	c0.8-1.1,1.5-2.5,2.1-4.1c0.8-2.2,0.9-4.2,0.2-5.9c-0.5-1.3-1.4-2.3-2.7-3.1c-0.2-0.3-0.4-0.5-0.8-0.7c-6-2.2-10.1,2.5-11.4,5.3
	c-1,2.2-1.6,4-1.8,5.6c-0.6,0.8-1.2,1.5-1.9,2.2c-0.7,0.7-1.6,1.3-2.5,1.6c-0.9,0.3-1.9,0.3-2.8,0c-0.9-0.3-1.7-0.8-1.7-1.4
	c-0.1-0.7,0.4-1.6,0.9-2.5c1.1-1.7,2.5-3.3,3.5-5.4c0.2-0.5,0.4-1.1,0.5-1.8c0.1-0.7-0.1-1.5-0.5-2.1c-0.4-0.7-0.9-1.1-1.5-1.4
	c-0.5-0.3-1.2-0.6-1.9-0.7c-0.7-0.1-1.5,0.1-2.1,0.3c-0.6,0.3-1.2,0.6-1.6,1c-0.3,0.3-0.6,0.5-0.9,0.8l1-3.1c0.3-0.8-0.2-1.7-0.9-2
	c-0.8-0.3-1.7,0.1-2.1,0.9l0,0c-0.6,3.8-1.9,6.7-3.7,9.9c-0.9,1.6-2,3.8-3.1,5.1c-1.1,1.3-3.1,2-4.3,2.3c-0.3,0.1-0.6,0.1-0.8,0
	c-0.1,0-0.3-0.1-0.4-0.1c0,0-0.1,0-0.1-0.1c-0.1-0.1-0.4-0.8-0.4-1.5c0-1.6,0.4-3.4,0.9-5.1c0.3-1,0.6-2,0.9-2.9
	c1.2-2.5,2.2-5,3-7.6c0.2-0.6-0.1-1.3-0.7-1.6c-0.7-0.3-1.5,0-1.8,0.6l0,0c-1.6,3.3-3,6.7-4.1,10.3c-0.7,1.4-1.5,2.7-2.4,3.9
	c-1,1.3-2.2,2.5-3.5,3.2l-0.5,0.2l-0.5,0.1c-0.4,0.1-0.8,0.1-1.1,0.1c-0.8,0-1.5-0.2-2.2-0.5c-1.2-0.6-1.9-1.8-2-3.2
	c2.1-2,4-4.1,5.8-6.3c4.4-5.7,7.8-12,10.7-18.5c1.4-3.3,2.7-6.6,3.8-9.9c1.1-3.4,2.1-6.8,2.9-10.2c0-0.1,0-0.2-0.1-0.2
	c-0.1,0-0.2,0-0.2,0.1c-2.2,6.7-4.9,13.2-8,19.5c-1.6,3.1-3.2,6.2-5,9.2c-1.8,3-3.8,5.8-6,8.5c-0.2,0.3-0.5,0.6-0.7,0.9
	c0.5-0.9,0.9-1.8,1.2-2.7c0.3-0.9,0.4-1.9,0.3-2.8c-0.1-1-0.4-1.9-0.9-2.7c-0.4-0.8-1.1-1.6-1.9-2.1c-0.8-0.5-1.7-0.8-2.7-1
	c-1.9-0.2-3.7,0.1-5.4,0.5c-1.7,0.5-3.4,1-5.1,1.7c-3.3,1.4-6.4,3.4-9,5.9c-2.6,2.5-4.8,5.5-6.1,9c-0.6,1.8-0.9,3.8-0.2,5.9
	c0.7,2,2.5,3.5,4.5,4.1c1,0.3,2,0.4,3,0.4c1-0.1,1.8-0.2,2.8-0.3c1.8-0.3,3.6-0.8,5.3-1.5c3.4-1.4,6.6-3.4,9.3-5.7
	c0.1-0.1,0.2-0.2,0.3-0.3c0.1,0.4,0.2,0.8,0.4,1.2c0.5,0.9,1.2,1.7,2.2,2.2c0.9,0.5,1.9,0.8,2.9,0.8c0.5,0,1,0,1.5-0.1l0.8-0.2
	l0.7-0.2c1.6-0.7,2.9-1.8,4-3c0,0.2,0,0.4,0,0.6c0,0.6,0,1.1,0.2,1.8c0.2,0.6,0.5,1.3,1.1,1.9c0.3,0.3,0.7,0.5,1.1,0.7
	c0.3,0.1,0.6,0.2,1,0.3c0.7,0.1,1.4,0.1,2,0c1.3-0.3,2.3-0.9,3.1-1.6c0.9-0.7,1.6-1.4,2.2-2.2c0.1-0.1,0.2-0.3,0.3-0.4
	c-0.1,0.5-0.3,1-0.5,1.5l0,0c-0.2,0.7,0.2,1.5,0.9,1.7c0.7,0.2,1.5-0.2,1.8-0.9c1.3-3.9,2.9-7.8,5.1-11.1c0.6-0.8,1.2-1.6,1.9-2.2
	c0.7-0.6,1.4-0.9,2-0.9c0.3,0,0.6,0.1,1,0.4c0.4,0.2,0.6,0.4,0.8,0.7c0.3,0.5,0.3,1.2-0.1,2.1c-0.7,1.8-2,3.5-3.1,5.4
	c-0.3,0.5-0.5,1-0.7,1.6c-0.2,0.6-0.4,1.2-0.2,1.9c0.1,0.7,0.6,1.4,1.2,1.7c0.5,0.4,1.1,0.6,1.7,0.7c1.1,0.3,2.4,0.2,3.5-0.3
	c1.1-0.4,2-1.2,2.7-2c0.4-0.5,0.8-1,1.2-1.5c-0.1,2.7,1,4.3,2.2,5.2c1.2,1,2.8,1.4,4.3,1.4c1.8,0,3.5-0.5,4.6-1.4
	c0.4-0.3,0.9-0.7,1.4-1.3c0,0.2,0.1,0.4,0.2,0.6c0.5,1.3,1.8,2,2.9,2.1c0.5,0.1,1.1,0,1.6,0c0.5-0.1,1-0.2,1.5-0.4
	C123.2,73.9,122.7,73.8,122.3,73.6z M51.8,70.8c-1.6,0.6-3.2,1.1-4.8,1.5c-0.8,0.2-1.7,0.3-2.5,0.4c-0.7,0.1-1.5,0-2.2-0.2
	c-1.4-0.3-2.6-1.3-3.2-2.7c-0.6-1.3-0.5-2.9,0-4.5c1-3.1,3-6.1,5.3-8.6c2.4-2.5,5.3-4.5,8.4-5.9c1.6-0.7,3.3-1.3,4.9-1.7
	c1.7-0.4,3.4-0.7,5-0.5c3.4,0.3,5.3,4.3,4.2,7.4c-0.5,1.6-1.5,3-2.5,4.4c-0.6,0.9-1.3,1.9-1.7,3C59.5,66.5,55.9,69.2,51.8,70.8z
	 M114.3,70.8c-1,0.8-3.8,1.2-5.2,0.1c-1.6-1.3-1.4-4.2,0.5-8.4c0.1-0.2,2-4.1,5.6-4.1c0.2,0,0.5,0,0.7,0c0,0,0.1,0,0.1,0.1
	c1.5,0.5,2.5,1.3,2.9,2.4c0.4,1,0.3,2.2-0.2,3.7C117.4,68.1,115.2,70.1,114.3,70.8z"/>
<g>
	<path class="st1" d="M47.3,90.2c2,0,3.5,0.5,4.6,1.4c1.1,0.9,1.6,2.2,1.6,3.9c0,1.6-0.5,2.9-1.6,3.8c-1.1,0.9-2.6,1.4-4.6,1.4v1.8
		h-1.8v-1.8c-2,0-3.6-0.5-4.6-1.4c-1.1-0.9-1.6-2.2-1.6-3.8c0-1.6,0.5-2.9,1.6-3.9c1.1-0.9,2.6-1.4,4.6-1.4v-1.5h1.8V90.2z
		 M45.5,99.2v-7.4c-1.5,0-2.6,0.3-3.3,0.9c-0.7,0.6-1.1,1.5-1.1,2.8c0,1.3,0.4,2.3,1.1,2.9C42.9,98.9,44,99.2,45.5,99.2z M47.3,99.2
		c1.5,0,2.6-0.3,3.3-0.8c0.7-0.6,1.1-1.5,1.1-2.9c0-1.3-0.4-2.2-1.1-2.8c-0.7-0.6-1.8-0.9-3.3-0.9V99.2z"/>
	<path class="st1" d="M76.6,102.4h-2L73,98.2h-5.7l-1.5,4.1h-1.9l5.2-13.6h1.9L76.6,102.4z M72.5,96.8l-2.4-6.3l-2.3,6.3H72.5z"/>
	<path class="st1" d="M89.5,94.5h3c3.6,0,5.3,1.3,5.3,4c0,1.3-0.4,2.3-1.3,2.9c-0.9,0.7-2.1,1-3.8,1h-5.1V88.8h8.8v1.6h-7V94.5z
		 M89.5,100.8h3.3c2.2,0,3.2-0.8,3.2-2.3c0-0.8-0.2-1.4-0.7-1.8c-0.5-0.4-1.4-0.6-2.7-0.6h-3V100.8z"/>
	<path class="st1" d="M109.6,88.8h5.1c1.1,0,2,0.1,2.8,0.3c0.8,0.2,1.3,0.7,1.8,1.3c0.4,0.7,0.7,1.5,0.7,2.3c0,1.4-0.4,2.4-1.3,3.1
		c-0.9,0.7-2.1,1.1-3.8,1.1h-3.4v5.4h-1.8V88.8z M111.4,95.3h3.4c1.2,0,2-0.2,2.5-0.6c0.5-0.4,0.7-1.1,0.7-1.9c0-0.5-0.1-1-0.4-1.4
		c-0.3-0.4-0.6-0.7-1-0.8c-0.4-0.1-1-0.2-1.8-0.2h-3.4V95.3z"/>
	<path class="st1" d="M142.4,102.4h-1.7V91.4l-7.1,10.9h-1.8V88.8h1.7v10.9l7.1-10.9h1.8V102.4z"/>
	<path class="st1" d="M166.1,102.4h-2.4l-4.8-6.8l-2.1,2.1v4.7H155V88.8h1.8v6.7l6.6-6.7h2.4l-5.7,5.6L166.1,102.4z"/>
	<path class="st1" d="M188.3,102.4h-2l-1.6-4.1H179l-1.5,4.1h-1.9l5.2-13.6h1.9L188.3,102.4z M184.2,96.8l-2.4-6.3l-2.3,6.3H184.2z"
		/>
	<path class="st1" d="M226.7,102.4H225V90.8l-3.9,11.6h-1.6l-3.9-11.6v11.6h-1.7V88.8h2.7l3.7,11.3l3.7-11.3h2.7V102.4z"/>
	<path class="st1" d="M249.3,102.4h-10.1V88.8h9.8v1.6h-8v4.2h7.5v1.6H241v4.6h8.3V102.4z"/>
	<path class="st1" d="M263.2,94.5h3c3.6,0,5.3,1.3,5.3,4c0,1.3-0.4,2.3-1.3,2.9c-0.9,0.7-2.1,1-3.8,1h-5.1V88.8h8.8v1.6h-7V94.5z
		 M263.2,100.8h3.3c2.2,0,3.2-0.8,3.2-2.3c0-0.8-0.2-1.4-0.7-1.8c-0.5-0.4-1.4-0.6-2.7-0.6h-3V100.8z"/>
	<path class="st1" d="M293.5,102.4h-10.1V88.8h9.8v1.6h-8v4.2h7.5v1.6h-7.5v4.6h8.3V102.4z"/>
	<path class="st1" d="M315.8,102.4H314v-12h-6v8.5c0,2.4-0.9,3.7-2.7,3.7c-0.4,0-0.8,0-1.3-0.1v-1.6c0.3,0.1,0.6,0.1,1,0.1
		c0.5,0,0.8-0.2,1-0.5c0.2-0.3,0.3-0.8,0.3-1.5V88.8h9.6V102.4z"/>
	<path class="st1" d="M339.1,102.4h-1.7V91.4l-7.1,10.9h-1.8V88.8h1.7v10.9l7.1-10.9h1.8V102.4z"/>
</g>
</svg>
